<?xml version="1.0" encoding="utf-8"?>
<!-- Generator: Adobe Illustrator 19.0.0, SVG Export Plug-In . SVG Version: 6.00 Build 0)  -->
<svg version="1.1" id="Layer_1" xmlns="http://www.w3.org/2000/svg" xmlns:xlink="http://www.w3.org/1999/xlink" x="0px" y="0px"
	 viewBox="249.8 312 53.8 53.9" style="enable-background:new 249.8 312 53.8 53.9;" xml:space="preserve">
<style type="text/css">
	.st0{clip-path:url(#SVGID_2_);}
	.st1{clip-path:url(#SVGID_9_);}
	.st2{clip-path:url(#SVGID_10_);}
	.st3{clip-path:url(#SVGID_11_);}
	.st4{clip-path:url(#SVGID_12_);}
	.st5{clip-path:url(#SVGID_13_);}
	.st6{clip-path:url(#SVGID_14_);fill:#FFFFFF;}
	.st7{clip-path:url(#SVGID_14_);fill:#68338B;}
	.st8{clip-path:url(#SVGID_14_);fill:#68328B;}
	.st9{clip-path:url(#SVGID_14_);fill:#673189;}
	.st10{clip-path:url(#SVGID_14_);fill:#6A348C;}
</style>
<g>
	<g>
		<g id="XMLID_2_">
			<defs>
				<rect id="SVGID_1_" x="250" y="312" width="53.6" height="53.9"/>
			</defs>
			<clipPath id="SVGID_2_">
				<use xlink:href="#SVGID_1_"  style="overflow:visible;"/>
			</clipPath>
			<g class="st0">
				<g>
					<defs>
						<rect id="SVGID_3_" x="250" y="312" width="53.6" height="53.9"/>
					</defs>
					<defs>
						<rect id="SVGID_4_" x="250" y="312" width="53.6" height="53.9"/>
					</defs>
					<defs>
						<rect id="SVGID_5_" x="250" y="312" width="53.6" height="53.9"/>
					</defs>
					<defs>
						<rect id="SVGID_6_" x="250" y="312" width="53.6" height="53.9"/>
					</defs>
					<defs>
						<rect id="SVGID_7_" x="250" y="312" width="53.6" height="53.9"/>
					</defs>
					<defs>
						<rect id="SVGID_8_" x="250" y="312" width="53.6" height="53.9"/>
					</defs>
					<clipPath id="SVGID_9_">
						<use xlink:href="#SVGID_3_"  style="overflow:visible;"/>
					</clipPath>
					<clipPath id="SVGID_10_" class="st1">
						<use xlink:href="#SVGID_4_"  style="overflow:visible;"/>
					</clipPath>
					<clipPath id="SVGID_11_" class="st2">
						<use xlink:href="#SVGID_5_"  style="overflow:visible;"/>
					</clipPath>
					<clipPath id="SVGID_12_" class="st3">
						<use xlink:href="#SVGID_6_"  style="overflow:visible;"/>
					</clipPath>
					<clipPath id="SVGID_13_" class="st4">
						<use xlink:href="#SVGID_7_"  style="overflow:visible;"/>
					</clipPath>
					<clipPath id="SVGID_14_" class="st5">
						<use xlink:href="#SVGID_8_"  style="overflow:visible;"/>
					</clipPath>
					<path id="XMLID_14_" class="st6" d="M290.7,358.5c1,2.3,0.2,3.4-1.2,4.3c-1.6,1-2.7,0.2-3.9-0.9c-2.5-2.5-4.3-2.2-5.1,1.4
						c-0.4,1.8-1.4,2.6-3.1,2.6c-1.5,0-2.4-0.8-2.9-2.3c-1.1-3.4-2.8-4.1-5.2-1.1c-1.1,1.3-2.4,1.7-3.9,1c-1.3-0.7-1.9-1.7-1.6-3.2
						c0.8-3.8-0.9-4.8-4.2-3.3c-1.7,0.7-2.9,0.6-3.9-0.8c-0.9-1.2-0.9-2.4,0-3.6c2.2-3.1,1.2-4.8-2.5-4.9c-1.5-0.1-2.6-0.5-2.9-2.1
						c-0.3-1.4-0.2-2.6,1.3-3.3c3.6-1.8,3.2-3.7,0.1-5.5c-1.5-0.9-2.3-1.8-1.7-3.6c0.5-1.4,1.3-2.2,2.9-2.1c3.9,0.2,4.3-1.9,2.5-4.6
						c-0.9-1.4-1.4-2.6-0.4-4c1.1-1.4,2.4-1.5,4-0.8c3.5,1.5,4.6-0.1,4-3.4c-0.3-1.5,0.1-2.7,1.4-3.4c1.4-0.7,2.8-0.7,4,0.8
						c2.3,2.9,4.1,2.1,5.1-1.1c0.5-1.6,1.5-2.6,3.2-2.5c1.5,0.1,2.5,0.8,2.7,2.4c0.4,2.8,1.7,3.2,3.4,1c1-1.3,2-2.3,3.7-1.6
						c1.6,0.7,1.9,1.9,1.9,3.6c0,3,1.1,5,4.5,2.8c1.4-0.9,2.6-0.3,3.6,0.6c1.1,1,1.1,2.4,0.3,3.7c-2,3.3-0.8,4.8,2.7,4.9
						c1.6,0,2.5,0.8,2.9,2.2c0.5,1.5-0.2,2.6-1.4,3.3c-3.2,2-3,3.9,0.3,5.5c1.4,0.7,1.9,1.7,1.7,3.2c-0.2,1.5-1.2,2.4-2.7,2.5
						c-3.8,0.3-4.4,2-2.3,4.9c0.9,1.2,1.3,2.3,0.3,3.6c-1,1.3-2.2,1.9-3.9,1.1C291.5,354,290.8,356.1,290.7,358.5"/>
					<path id="XMLID_13_" class="st7" d="M287,345.6c-6.3-5.4-6.3-11-0.1-16.3C291.4,334.6,291.4,340.1,287,345.6"/>
					<path id="XMLID_12_" class="st8" d="M276.8,330.7c-0.9,0.2-1.9,0.6-2.9,0.5c-2.6-0.2-4.2-2.4-4.8-4.3c-0.5-1.5,2.2-2,3.6-2.5
						c2.2-0.8,4.5-1,6.8-0.4c2,0.6,5.4,0.9,5,2.8c-0.5,2.2-2.6,5.2-6.2,4.1C277.8,330.7,277.3,330.7,276.8,330.7"/>
					<path id="XMLID_11_" class="st9" d="M268.6,348.6c5.1-6.5,11.2-6.5,16.3,0.1C279.2,352.7,274.5,352.7,268.6,348.6"/>
					<path id="XMLID_10_" class="st9" d="M266.8,329.4c6.5,5.4,6.5,11.1,0.4,16.2C263,340.6,262.9,336,266.8,329.4"/>
					<path id="XMLID_9_" class="st10" d="M277.1,341.2c-2.1-0.2-3.7-1.3-3.7-3.7c0-2.3,1.4-3.7,3.7-3.8c2.4-0.1,3.8,1.4,3.9,3.6
						C281,339.5,279.6,341,277.1,341.2"/>
				</g>
			</g>
		</g>
	</g>
</g>
</svg>
