<?xml version="1.0" encoding="utf-8"?>
<!-- Generator: Adobe Illustrator 19.0.0, SVG Export Plug-In . SVG Version: 6.00 Build 0)  -->
<svg version="1.1" id="Layer_1" xmlns="http://www.w3.org/2000/svg" xmlns:xlink="http://www.w3.org/1999/xlink" x="0px" y="0px"
	 viewBox="300 213 394 351" style="enable-background:new 300 213 394 351;" xml:space="preserve">
<style type="text/css">
	.st0{fill:#652D87;}
	.st1{fill:#652D88;}
	.st2{fill:#FEFEFE;}
	.st3{fill:#FEFDFE;}
	.st4{fill:#FCFBFC;}
	.st5{fill:#FBFAFC;}
	.st6{fill:#F9F7FA;}
	.st7{fill:#FDFDFD;}
	.st8{fill:#662E88;}
	.st9{fill:#662F89;}
	.st10{fill:#6F3A8F;}
	.st11{fill:#ECE5F0;}
	.st12{fill:#7F519C;}
	.st13{fill:#7B4C99;}
	.st14{fill:#713E91;}
	.st15{fill:#744293;}
	.st16{fill:#6F3B8F;}
	.st17{fill:#6D398E;}
	.st18{fill:#6E3A8F;}
	.st19{fill:#764495;}
	.st20{fill:#69338B;}
	.st21{fill:#68328A;}
	.st22{fill:#68318A;}
	.st23{fill:#67318A;}
	.st24{fill:#673089;}
	.st25{fill:#F8F6F9;}
	.st26{fill:#EEE8F2;}
	.st27{fill:#F6F3F8;}
</style>
<g>
	<path class="st0" d="M566.4,266c-2.8,10.4-5,20.4-5.8,30.7c-0.5,6.5-0.8,12.9-1,19.4c-0.2,5.7-0.8,11.3-3.6,16.4
		c-0.9,1.6-0.5,2.7,0.4,4c14.2,20.2,13.2,41.3,3,62.4c-13.3,27.7-35.6,46.8-62.1,61.5c-1.6,0.9-3.1,1-4.7,0.1
		c-29.7-16.8-54.5-38.3-66.2-71.6c-6.3-18.1-4.6-35.7,6.6-51.9c0.9-1.4,2-2.5,0.9-4.4c-3.6-6.1-3.7-13.1-3.8-19.9
		c-0.2-14.7-1.8-29.2-5.9-43.4c-1-3.3,0.3-3.6,3-3.5c11.6,0.5,22.8,2.4,33.5,6.9c2.7,1.1,4.7,1.2,7.4-0.4
		c17.8-10.3,35.7-10.2,53.5-0.1c2.6,1.4,4.5,1.8,7.3,0.6C540.8,268.1,553.2,265.9,566.4,266z"/>
	<path class="st1" d="M421.8,516.7c0-2.8,0-5.7,0-8.5c0.1-8.9,5-14.2,13.8-15.2c1.2-0.1,2.3-0.3,3.5-0.2c8.4,0.7,16.9,0.4,25.3,0.2
		c12.4-0.3,17.4,5.3,17.4,17.7c0,5,0.2,10-0.1,15c-0.1,1.8,1.6,5-2,4.9c-3.4-0.1-7.5-0.2-7.7-5.1c-0.2-4.2-0.1-8.3-0.1-12.5
		c-0.1-9.6-2.6-11.9-12-11.1c-2.6,0.2-3.5,1.1-3.4,3.7c0.1,2.5,0,5-0.1,7.5c-0.1,2.3-1,4.1-3.5,4.8c-4.7,1.4-5.8,0.6-5.8-4.3
		c0-1.5,0-3,0-4.5c0-3.7,1.2-7.7-5.3-7.3c-7.1,0.5-9.5,1.9-9.7,7.8c-0.1,4.5-0.1,9,0,13.5c0,4.5-1.8,7.1-6.6,7.5
		c-2.6,0.2-3.7-0.1-3.6-2.9C422,524.1,421.8,520.4,421.8,516.7z"/>
	<path class="st1" d="M602.4,513c0,11-4.3,16.1-14.4,17.7c-3.5,0.5-7,0.5-10.4-0.3c-8.7-1.9-12.7-6.4-13.1-14.5
		c-0.5-11.8,2.2-16.2,11.7-19.1c1.2-0.4,3.2,0,3-2.4c-0.2-2.1-0.7-3.9-3.1-4.6c-2.9-0.9-5.8-1.7-7-5c-0.9-2.4-0.9-4.3,2.6-4
		c3,0.3,6.3-1,8.1,3c0.8,1.7,3.1,1.9,4.9,2.1c4.2,0.5,5.7,2.8,5.5,6.8c-0.1,1.6-0.8,3.6,1.8,4.5C600.1,499.8,603.1,505.6,602.4,513z
		"/>
	<path class="st1" d="M487.2,505.7c0-2.3,0.1-4.7,0-7c-0.9-13.7,7.3-18.5,19.3-18.1c16.5,0.5,18.2,3.1,15.5,19.8
		c-0.5,3.1-2.2,4.6-5.2,5c-2.8,0.4-4.6-0.1-4.2-3.5c0.2-1.5,0-3,0-4.5c0-7.6,0-7.6-5.8-7.6c-7,0-9,1.7-9,8.2
		c-0.1,5.2-0.1,10.3,0,15.5c0.1,6.2,1.9,7.9,8.2,7.9c3,0,6-0.3,9-0.4c4.3-0.2,5.4,2.6,5.6,6.1c0.2,3.9-3.1,2.6-5,2.9
		c-5.3,0.7-10.5,1.4-15.9,0.2c-8-1.7-12.1-6.4-12.2-14.5C487.1,512.3,487.2,509,487.2,505.7z"/>
	<path class="st1" d="M359.2,530.9c-1.5,0-3,0.1-4.5,0c-10.8-0.9-10.8-0.9-10.6-11.5c0-1.5-1.4-4.1,1.5-4.5c2.7-0.3,5.8-0.5,7.4,2.7
		c2,4.1,5.7,5.5,10.7,4c4.6-1.4,5.4-5.1,5.1-9.1c-0.3-4.8-3-7.6-7.8-7.1c-5.4,0.6-7.1-1.5-6.4-6.6c0.4-2.9,0.1-5.2-4-4.9
		c-3.7,0.2-4.5-2.6-4.6-5.8c-0.1-4,3-2.1,4.7-2.3c2.1-0.3,3.7,0,4.1-3c0.5-4,4-1.4,6.1-1.8c1.4-0.3,4.1-1.2,4,2
		c-0.1,2.8,1.5,2.8,3.5,2.8c1.7,0,3.4,0,5,0.3c3.4,0.7,3.8,3.5,3.6,6.2c-0.1,3.1-2.8,1.3-4.2,1.8c-2.5,0.8-6.8-1.8-7.4,1.5
		c-0.8,4.2,4.4,1.7,6.4,3.3c1.2,1,3,1.5,4,2.9c4.4,6.4,4.3,13.6,2,20.5c-2,6.1-7.5,8-13.5,8.6C362.5,531.1,360.8,531,359.2,530.9
		C359.2,531,359.2,530.9,359.2,530.9z"/>
	<path class="st1" d="M608,516.9c0-2.5,0-5,0-7.5c0-9.3,4.1-14.4,13.1-16c4.4-0.8,8.9-0.8,13.4,0.4c7.7,2.1,11.5,6.8,11.6,14.8
		c0.1,5.7,0.2,11.3-0.1,17c-0.1,1.8,1.9,5.4-2.2,5.2c-3.4-0.1-7.5-0.2-7.7-5.2c-0.2-4.7-0.1-9.3-0.2-14c-0.1-7.5-3-10.3-10.4-9.6
		c-5,0.4-7.1,2.6-7.2,7.7c-0.1,4.8,0.1,9.7-0.1,14.5c-0.2,4.9-3.8,7.5-8.4,6.8c-1.8-0.3-1.6-1.4-1.6-2.5
		C608,524.5,608,520.7,608,516.9z"/>
	<path class="st1" d="M416.2,512.7c0.5,6.5-0.3,13.4-8.7,16.6c-7,2.6-14.1,1.4-21.2,0.4c-1.6-0.2-2.1-1.2-1.8-2.9
		c0.4-2.5,0.2-5.4,3.5-5.7c2.6-0.3,5.3,0,7.9,0.3c3.4,0.3,6.7,0.5,9-2.7c1.6-2.4,1.6-11.8-0.1-14c-2.4-3.2-5.7-2.7-9.1-2.1
		c-7.3,1.4-10.2-0.2-10.8-5.7c-0.2-1.8,0-2.7,2.1-3c6.1-1,12.2-1.7,18.3-0.2C413.8,495.7,416.2,499.8,416.2,512.7z"/>
	<path class="st1" d="M558.9,513.9c0.1,14-3.5,17.5-17.8,17c-1.8-0.1-3.6-0.2-5.4-0.5c-8.6-1.3-8.7-1.3-8.5-9.9
		c0-1.5-1.3-4.1,1.5-4.5c2.6-0.3,6.2-0.1,6.8,2.8c1.3,6.6,6.1,3.8,9.4,3.8c4.2,0,4.4-3.7,4.5-7c0.3-9.5,0-9.8-9.2-12
		c-4.2-1-8.7-1.7-10.9-6.1c-1.2-2.5-1.9-5.1,2.8-4.7c8.2,0.7,15.4,4.2,23,6.9c2.6,0.9,3.7,3.7,3.8,6.6
		C558.9,509,558.9,511.5,558.9,513.9z"/>
	<path class="st2" d="M456.8,398.3c-0.2-13.3,5.6-21.9,14.8-28.8c1.5-1.1,2.3-0.1,3.8,0.3c5.3,1.5,8.7,3.7,9.6,9.6
		c0.2,1,4,3.4,6.7,0.2c2.1-2.5,5.2-2.4,7.3,0c1.9,2.2,3.4,1.4,5.2,0.5c1.7-0.8,3.6-1.3,2.5-3.9c-0.4-0.8-0.3-1.7,0.4-2.3
		c1.4-1.1,2.1-2.8,4.3-3.1c7.9-1,7.9-1.1,10.1,0.9c7.1,6.5,12,14.2,11.9,24.3c0,3.6-0.8,5.2-4.5,2.6c-2.8-1.9-5-1-5.7,2.4
		c-0.5,2.6-1.4,4.4-4.7,4.5c-2.5,0.1-3.7,3.7-1.9,5.8c1.8,2.1,1.8,3.9,0.3,6.1c-1.9,2.9-0.8,5.2,2.7,5.7c3.1,0.5,4,1.8,1.9,4.6
		c-3.5,4.7-7.1,9.3-11.3,13.3c-0.9,0.9-1.6,3-3.4,1.8c-1.6-1-2.8-2.3-1.9-4.5c0.4-1.2,0.8-3.2,0.2-3.8c-1.9-1.9-3.9-2.7-5.9,0.6
		c-2.3,3.8-5.4,3.7-8,0c-1.1-1.6-2-3-4.3-2c-2.4,1-2.3,2.7-1.6,4.5c0.9,2.3,0.1,3.9-1.7,5.1c-2.4,1.6-3.1-1-4.2-2.1
		c-8.8-9.2-16.4-19.2-20.6-31.5C457.5,405.2,456.6,401.2,456.8,398.3z"/>
	<path class="st2" d="M540.1,337c1,2.3,0.2,3.4-1.2,4.3c-1.6,1-2.7,0.2-3.9-0.9c-2.5-2.5-4.3-2.2-5.1,1.4c-0.4,1.8-1.4,2.6-3.1,2.6
		c-1.5,0-2.4-0.8-2.9-2.3c-1.1-3.4-2.8-4.1-5.2-1.1c-1.1,1.3-2.4,1.7-3.9,1c-1.3-0.7-1.9-1.7-1.6-3.2c0.8-3.8-0.9-4.8-4.2-3.3
		c-1.7,0.7-2.9,0.6-3.9-0.8c-0.9-1.2-0.9-2.4,0-3.6c2.2-3.1,1.2-4.8-2.5-4.9c-1.5-0.1-2.6-0.5-2.9-2.1c-0.3-1.4-0.2-2.6,1.3-3.3
		c3.6-1.8,3.2-3.7,0.1-5.5c-1.5-0.9-2.3-1.8-1.7-3.6c0.5-1.4,1.3-2.2,2.9-2.1c3.9,0.2,4.3-1.9,2.5-4.6c-0.9-1.4-1.4-2.6-0.4-4
		c1.1-1.4,2.4-1.5,4-0.8c3.5,1.5,4.6-0.1,4-3.4c-0.3-1.5,0.1-2.7,1.4-3.4c1.4-0.7,2.8-0.7,4,0.8c2.3,2.9,4.1,2.1,5.1-1.1
		c0.5-1.6,1.5-2.6,3.2-2.5c1.5,0.1,2.5,0.8,2.7,2.4c0.4,2.8,1.7,3.2,3.4,1c1-1.3,2-2.3,3.7-1.6c1.6,0.7,1.9,1.9,1.9,3.6
		c0,3,1.1,5,4.5,2.8c1.4-0.9,2.6-0.3,3.6,0.6c1.1,1,1.1,2.4,0.3,3.7c-2,3.3-0.8,4.8,2.7,4.9c1.6,0,2.5,0.8,2.9,2.2
		c0.5,1.5-0.2,2.6-1.4,3.3c-3.2,2-3,3.9,0.3,5.5c1.4,0.7,1.9,1.7,1.7,3.2c-0.2,1.5-1.2,2.4-2.7,2.5c-3.8,0.3-4.4,2-2.3,4.9
		c0.9,1.2,1.3,2.3,0.3,3.6c-1,1.3-2.2,1.9-3.9,1.1C540.9,332.6,540.3,334.6,540.1,337z"/>
	<path class="st2" d="M450.4,297.9c-0.7-2.6-0.3-3.8,1.1-4.5c1.4-0.8,2.8-0.6,4,0.7c2.6,2.8,4.3,2,5.3-1.4c0.5-1.5,1.4-2.2,2.9-2.2
		c1.3,0,2.5,0.6,2.8,1.8c0.8,3.4,1.8,4.3,4,0.9c0.7-1,1.8-1.4,3.1-0.9c1.3,0.6,2.4,1.5,2.2,3c-0.7,4.2,0.8,5.1,4.5,3.3
		c1.4-0.7,2.6-0.2,3.6,0.7c1,1,1.3,2.3,0.4,3.6c-2.3,3.3-0.9,4.8,2.6,4.9c1.5,0.1,2.6,0.7,3,2.1c0.5,1.7-0.3,2.8-1.8,3.7
		c-3,1.7-2.1,3.7,0.2,5c1.5,0.9,2.5,1.6,2.3,3.3c-0.3,1.6-1.3,2.5-3.1,2.7c-3.4,0.3-4.5,1.8-2.1,4.8c1.1,1.3,1.2,2.8,0.1,4.1
		c-1.1,1.3-2.4,1.1-4,0.5c-2.7-0.9-4.3,0.2-3.7,3.3c0.3,1.6,0.4,2.9-1.2,3.9c-1.9,1.2-3,0.1-4.2-1.2c-2.2-2.2-3.9-1.4-4.7,1.2
		c-0.5,1.8-1.1,3.2-3.2,3.2c-2,0-2.5-1.4-3.2-3.2c-0.9-2.4-2.8-3.1-4.7-0.7c-1,1.3-2,2.2-3.7,1.6c-2-0.7-2-2.1-2-4
		c0.1-2.7-0.9-4.6-4-2.9c-1.5,0.8-2.8,0.9-4-0.4c-1.2-1.3-1.1-2.5-0.1-4c2.1-3.2,1.1-4.8-2.7-4.7c-1.6,0-2.5-0.8-2.9-2.2
		c-0.5-1.5,0.2-2.6,1.5-3.3c3.7-2.1,3.6-3.9-0.3-5.7c-1.5-0.7-1.7-1.9-1.4-3.4c0.4-1.5,1.4-2.1,2.9-2.2c3.7-0.2,4.4-1.9,2.3-4.8
		c-0.9-1.2-1-2.5-0.1-3.7c1-1.5,2.5-1.4,4-0.8C449.7,301.6,450.2,299.5,450.4,297.9z"/>
	<path class="st2" d="M495,304.9c-3.1-6.6-6.2-11.9-10.7-16.5c-4.3-4.4-9.1-8.2-14.5-11.4c13.4-10.4,36.7-10.5,50.3-0.1
		c-5.4,3.4-10.4,7.2-14.8,11.8C501.1,293.2,498,298.4,495,304.9z"/>
	<path class="st3" d="M505.5,342.3c-0.1,3.2-6.7,12.2-9.7,13.4c-0.9,0.4-1.6,0.2-2.2-0.4c-3.3-3.1-6.6-6.1-8.4-10.3
		c-1-2.3-0.9-4.4,1-6.4c2.4-2.5,4.5-5.3,6.7-8c1.4-1.8,2.5-2.4,4.1-0.2c2.3,3,4.8,5.9,7.2,8.8C505,340.1,505.8,341,505.5,342.3z"/>
	<path class="st4" d="M502.5,447.9c-1.5,2.5-4,4-6.1,5.8c-1.6,1.4-2.9,0.2-3.9-0.9c-1.6-1.9-5.7-2.7-4.4-5.7
		c1.5-3.2,5.3-3.7,8.8-3.1C499.3,444.4,501.3,445.5,502.5,447.9z"/>
	<path class="st5" d="M503.8,363.5c-1.4,4-4.5,5.8-8.3,5.9c-4.1,0.2-7.3-1.6-9.2-5.6C492.3,361.6,496,361.5,503.8,363.5z"/>
	<path class="st6" d="M531.5,407.1c-0.8,4.4-2.8,8.1-4.9,11.9C522.7,413,524.7,407.9,531.5,407.1z"/>
	<path class="st7" d="M592.2,513.7c0,5.9-2.4,8.2-8.6,8.3c-6.2,0-8.8-2.5-8.8-8.6c0-6.1,2.6-8.6,8.8-8.5
		C589.8,505,592.2,507.4,592.2,513.7z"/>
	<path class="st8" d="M505.1,408c1.3,0.7,2.2,1.9,2.9,3.1c0.3,0.9-0.3,1.2-1.1,1.3c-2.3,0.5-5.4,0.5-2.6,4.2
		c0.6,0.7,1.2,1.4,0.7,2.4c-1.6,1.8-2.9,0.8-4.2-0.5c-1.9-1.9-3.6-3.9-5.5-5.8c-0.9-0.9-1.6-2.8-3-2.3c-1.5,0.5-2.4,2-2.5,4
		c-0.2,3.2-2.1,5.2-5.3,5.6c-2.8,0.4-4.9-1-6.1-3.4c-1.8-3.5,0.1-7.2,4.3-8.5c6.1-2,6.2-2.4,1.9-7.2c-2.1-2.4-5.4-4.1-5.7-7.9
		c-0.5-0.8,0-1.1,0.6-1.4c2.9,0,4-2.2,5.2-4.3c3.4,1.1,5.2,3.9,7.2,6.5c-2.9,0.8-0.1,1.5,0,2.3c0.5,0.8,1,1.5,1.4,2.3
		c0.7,0.2,1.2,0.7,1.6,1.2c2.4,2.9,5.1,5.6,7.9,8.2C503.6,407.8,504.4,407.4,505.1,408z"/>
	<path class="st9" d="M494.1,400.1c-0.2-0.6-0.4-1.2-0.6-1.8c2.8-1.5,4.8-3,4.8-7.1c-0.1-4.4,4-6.5,9.2-5.9c0.2,2.8-6.7,3.3-2.1,7.6
		c4.3,4,4.4-3.1,7.3-2.1c0.5,5.9-2,8.9-7.8,9.1c-1.4,0-2.6,0.2-3.7,1c-1.1,0.5-0.6,2.3-2.1,2.4C496.8,403.3,496,400.8,494.1,400.1z"
		/>
	<path class="st10" d="M467.9,398.3c1.4,1.1,3.5,0.8,3.4,4.1c-0.1,3.5-1.4,4.1-4.3,4c-2.4-0.1-3.4-1-3.5-3.7
		C463.3,399.6,464.8,398.8,467.9,398.3z"/>
	<path class="st11" d="M484.7,387.4c1.7,3-1.3,3.7-2.6,5.2c-0.9,1-1.9,1.2-2.3-0.6c-2.5-3.8-0.2-4.7,3-5
		C483.5,387.2,484.1,387.3,484.7,387.4z"/>
	<path class="st12" d="M482.9,387.1c-2.1,1-4.2,2.1-3,5c-0.3,0.4-0.6,0.7-0.9,1.1c-0.3-0.7-0.8-1.4-0.9-2.2
		c-0.1-1.9-2.2-4.1-0.4-5.4C479.1,384.4,481.2,386.2,482.9,387.1z"/>
	<path class="st13" d="M507.2,412c0.2-0.3,0.5-0.6,0.7-0.9c5,4.9-1.2,5.6-2.9,8c-0.4-0.6-0.7-1.2-1.1-1.9
		C504.5,415.1,505.5,413.3,507.2,412z"/>
	<path class="st14" d="M481.4,427.9c-0.3,1.2-0.9,2.2-2.3,2c-1.3-0.2-2.1-1.1-1.9-2.4c0.1-1,0.9-1.7,2-1.7
		C480.6,425.8,481.4,426.5,481.4,427.9z"/>
	<path class="st15" d="M517.7,376.2c1.4,0.2,2.3,0.9,2.3,2.2c0,1.3-1,2.1-2.3,2.1c-1.1,0-1.8-0.8-1.9-1.9
		C515.7,377.2,516.6,376.6,517.7,376.2z"/>
	<path class="st16" d="M471.1,415.1c1.4,0.2,2.1,1.1,1.9,2.4c-0.1,1.1-0.8,1.8-2,1.7c-1.1-0.1-1.9-0.6-2-1.8
		C469,416,469.8,415.3,471.1,415.1z"/>
	<path class="st17" d="M526.1,390c-0.2,1.3-1,2.1-2.3,1.9c-1.1-0.2-1.7-1-1.7-2.1c0.1-1.5,1-2,2.3-1.9
		C525.4,388.1,526.1,388.8,526.1,390z"/>
	<path class="st18" d="M468,388.5c-0.1,1.4-0.7,2.4-2.1,2.4c-1.1,0-1.8-0.8-1.9-1.9c-0.2-1.4,0.6-2.2,2-2.2
		C467.1,386.8,467.8,387.5,468,388.5z"/>
	<path class="st19" d="M499,403c0.7-0.6,1.5-1.3,2.2-1.9c-1.1,3.6,3.1,4.3,3.8,6.9c-0.6,0.4-1.3,0.7-1.9,1.1
		C502.1,406.8,499.1,405.9,499,403z"/>
	<path class="st14" d="M473.2,375.4c1.4,0.1,2.2,0.9,2.3,2.1c0.1,1-0.7,1.9-1.7,2.1c-1.4,0.3-2.2-0.6-2.5-1.7
		C471.1,376.5,472.2,375.9,473.2,375.4z"/>
	<path class="st11" d="M492,396.1c-2.8,0.2-3.5-2-5-3.8c2.4-0.8,2.9,2.5,4.9,1.5C491.9,394.6,492,395.4,492,396.1z"/>
	<path class="st20" d="M526,323.9c-3.2,0-6.3-0.1-9.5,0c-2.6,0.1-3.8-1.2-3.7-3.5c0.1-2.5,2.2-1.3,3.4-1.3c6.8-0.1,13.6-0.1,20.4,0
		c1.2,0,3.4-1.1,3.3,1.5c-0.1,1.9-0.9,3.4-3.4,3.3C532.9,323.7,529.4,323.8,526,323.9z"/>
	<path class="st20" d="M526.1,316c-3.5,0-7,0.1-10.5,0c-1.1,0-3,0.9-2.9-1.4c0.1-1.4,0.3-3.3,2.3-3.3c7.5-0.1,14.9-0.1,22.4,0
		c2,0,2.3,1.8,2.4,3.2c0.3,2.3-1.7,1.5-2.8,1.5C533.4,316.1,529.7,316,526.1,316z"/>
	<path class="st21" d="M535.9,327.3c-6.6,5.5-12.5,5.5-19.2,0C523.2,327.3,529.2,327.3,535.9,327.3z"/>
	<path class="st21" d="M535.6,307.9c-6.2,0-12.2,0-18.2,0C521.7,302.1,529.9,302,535.6,307.9z"/>
	<path class="st22" d="M474.6,325.6c-6.3-5.4-6.3-11-0.1-16.3C478.9,314.6,479,320.2,474.6,325.6z"/>
	<path class="st23" d="M463.7,310.6c-0.9,0.2-1.9,0.6-2.9,0.5c-2.6-0.2-4.2-2.4-4.8-4.3c-0.5-1.5,2.2-2,3.6-2.5
		c2.2-0.8,4.5-1,6.8-0.4c2,0.6,5.4,0.9,5,2.8c-0.5,2.2-2.6,5.2-6.2,4.1C464.7,310.6,464.2,310.6,463.7,310.6z"/>
	<path class="st24" d="M455.5,328.4c5.1-6.5,11.2-6.5,16.3,0.1C466.1,332.6,461.4,332.5,455.5,328.4z"/>
	<path class="st24" d="M452.6,309.3c6.5,5.4,6.5,11.1,0.4,16.2C448.8,320.5,448.7,315.8,452.6,309.3z"/>
	<path class="st20" d="M463.7,321.3c-2.1-0.2-3.7-1.3-3.7-3.7c0-2.3,1.4-3.7,3.7-3.8c2.4-0.1,3.8,1.4,3.9,3.6
		C467.6,319.6,466.2,321.1,463.7,321.3z"/>
	<path class="st25" d="M507.2,412c0.1,2.5-1,4.2-3.2,5.2c-1.4-0.5-4.3-0.1-2.6-2.6C502.4,413,503.7,409.1,507.2,412z"/>
	<path class="st26" d="M499,403c1,2.3,3.9,3.3,4.2,6c-3.9-2.1-6.2-5.8-9.1-8.9C496.9,399,497.1,402.5,499,403z"/>
	<path class="st27" d="M486.1,414.3c-0.1,1.4-1,2-2.3,1.9c-1.4-0.1-2-0.9-1.9-2.3c0.1-1.3,0.9-2,2.3-1.9
		C485.5,412.1,486.1,412.9,486.1,414.3z"/>
</g>
</svg>
